<svg width="16px" height="16px" viewBox="0 0 600.000000 600.000000"
 preserveAspectRatio="xMidYMid meet">
<g transform="translate(0.000000,600.000000) scale(0.100000,-0.100000)"
fill="#828282" stroke="none">
<path d="M2805 5864 c-190 -19 -259 -29 -385 -54 -733 -146 -1392 -592 -1814
-1228 -245 -368 -402 -798 -458 -1252 -16 -135 -16 -515 0 -650 56 -454 213
-884 458 -1252 471 -709 1213 -1165 2064 -1270 58 -7 204 -13 325 -13 121 0
267 6 325 13 1157 142 2097 937 2426 2051 38 129 77 318 96 471 16 135 16 514
0 650 -56 454 -213 884 -458 1252 -462 696 -1186 1150 -2015 1263 -109 15
-481 27 -564 19z m390 -474 c636 -59 1207 -351 1612 -824 334 -391 525 -844
573 -1361 42 -456 -65 -956 -290 -1357 -295 -524 -758 -913 -1315 -1105 -722
-248 -1495 -144 -2131 288 -303 206 -557 485 -744 817 -225 401 -332 901 -290
1357 62 671 376 1256 900 1675 465 374 1095 564 1685 510z"/>
<path d="M2950 4767 c-19 -7 -407 -261 -862 -565 -645 -430 -831 -559 -845
-584 -17 -31 -18 -75 -18 -613 0 -539 1 -582 18 -613 14 -25 201 -155 855
-591 492 -328 851 -560 870 -564 19 -4 49 -1 70 6 20 7 409 261 864 565 645
430 831 559 845 584 17 31 18 75 18 613 0 539 -1 582 -18 613 -14 25 -201 155
-858 592 -461 308 -845 560 -852 560 -6 0 -21 2 -32 5 -11 3 -36 -1 -55 -8z
m-110 -789 l-1 -353 -328 -218 -329 -219 -266 178 -266 177 587 393 c324 216
591 393 596 393 4 1 7 -158 7 -351z m910 -41 l590 -394 -266 -177 -266 -178
-329 219 -328 218 -1 353 c0 193 2 352 5 352 3 0 271 -177 595 -393z m-492
-748 c141 -94 260 -175 265 -178 10 -10 -521 -364 -536 -358 -32 14 -521 348
-518 355 5 9 513 350 524 351 4 1 123 -76 265 -170z m-1352 -185 c0 0 -85 -58
-188 -128 l-188 -127 0 256 0 255 189 -127 c104 -71 188 -128 187 -129z m2554
1 l0 -255 -188 127 -188 128 185 127 c103 69 187 127 189 127 1 1 2 -114 2
-254z m-1948 -402 l327 -218 1 -352 c0 -194 -2 -353 -5 -353 -3 0 -271 177
-595 393 l-590 394 262 176 c145 96 265 176 268 176 3 1 152 -97 332 -216z
m1563 40 l265 -176 -590 -394 c-324 -216 -592 -393 -595 -393 -3 0 -5 159 -5
353 l1 352 327 217 c180 120 328 218 330 218 1 0 121 -79 267 -177z"/>
</g>
</svg>