<?xml version="1.0" standalone="no"?>
<!DOCTYPE svg PUBLIC "-//W3C//DTD SVG 20010904//EN"
 "http://www.w3.org/TR/2001/REC-SVG-20010904/DTD/svg10.dtd">
<svg version="1.0" xmlns="http://www.w3.org/2000/svg"
 width="1338.000000pt" height="1338.000000pt" viewBox="0 0 1338.000000 1338.000000"
 preserveAspectRatio="xMidYMid meet">
<metadata>
Created by potrace 1.11, written by Peter Selinger 2001-2013
</metadata>
<g transform="translate(0.000000,1338.000000) scale(0.100000,-0.100000)"
fill="#000000" stroke="none">
<path d="M6400 13374 c-245 -16 -383 -27 -490 -40 -1369 -163 -2619 -723
-3660 -1641 -147 -129 -462 -445 -586 -588 -897 -1029 -1449 -2261 -1613
-3600 -37 -296 -45 -455 -45 -815 0 -345 8 -510 40 -780 160 -1354 714 -2598
1618 -3635 124 -143 439 -459 586 -588 1033 -911 2273 -1471 3625 -1636 296
-37 455 -45 815 -45 360 0 519 8 815 45 1339 164 2571 716 3600 1613 143 124
459 439 588 586 918 1041 1479 2293 1641 3660 43 360 55 959 28 1285 -128
1493 -678 2800 -1646 3910 -124 143 -439 459 -586 588 -1097 968 -2416 1534
-3875 1663 -159 14 -733 26 -855 18z m-1007 -3024 c127 -48 229 -153 267 -276
20 -66 20 -77 20 -2805 l0 -2739 1584 0 c1022 0 1602 -4 1636 -10 82 -16 155
-54 219 -115 104 -99 149 -221 138 -371 -14 -188 -160 -353 -345 -393 -69 -14
-3694 -16 -3771 -1 -177 33 -316 188 -341 380 -13 105 -13 5881 0 5975 27 181
157 326 335 372 67 17 188 9 258 -17z"/>
</g>
</svg>
